<mxfile host="app.diagrams.net" modified="2022-09-06T13:30:47.951Z" agent="5.0 (Windows NT 10.0; Win64; x64) AppleWebKit/537.36 (KHTML, like Gecko) Chrome/105.0.0.0 Safari/537.36" etag="ldNfpeYxEwe92WwPajEc" version="20.2.8" type="github">
  <diagram id="0OrnlEFQcHHlWwHHSC_z" name="페이지-1">
    <mxGraphModel dx="1038" dy="547" grid="1" gridSize="10" guides="1" tooltips="1" connect="1" arrows="1" fold="1" page="1" pageScale="1" pageWidth="827" pageHeight="1169" math="0" shadow="0">
      <root>
        <mxCell id="0" />
        <mxCell id="1" parent="0" />
        <mxCell id="cfq1ZJJZifHIdtimp5Ud-1" value="" style="rounded=1;whiteSpace=wrap;html=1;" vertex="1" parent="1">
          <mxGeometry x="40" y="480" width="120" height="60" as="geometry" />
        </mxCell>
        <mxCell id="cfq1ZJJZifHIdtimp5Ud-2" value="메인 페이지" style="text;html=1;strokeColor=none;fillColor=none;align=center;verticalAlign=middle;whiteSpace=wrap;rounded=0;" vertex="1" parent="1">
          <mxGeometry x="65" y="495" width="70" height="30" as="geometry" />
        </mxCell>
        <mxCell id="cfq1ZJJZifHIdtimp5Ud-3" value="" style="rounded=1;whiteSpace=wrap;html=1;" vertex="1" parent="1">
          <mxGeometry x="290" y="400" width="120" height="60" as="geometry" />
        </mxCell>
        <mxCell id="cfq1ZJJZifHIdtimp5Ud-6" value="" style="endArrow=classic;html=1;rounded=0;" edge="1" parent="1">
          <mxGeometry width="50" height="50" relative="1" as="geometry">
            <mxPoint x="190" y="480" as="sourcePoint" />
            <mxPoint x="250" y="440" as="targetPoint" />
          </mxGeometry>
        </mxCell>
        <mxCell id="cfq1ZJJZifHIdtimp5Ud-7" value="로그인" style="text;html=1;strokeColor=none;fillColor=none;align=center;verticalAlign=middle;whiteSpace=wrap;rounded=0;" vertex="1" parent="1">
          <mxGeometry x="320" y="415" width="60" height="30" as="geometry" />
        </mxCell>
        <mxCell id="cfq1ZJJZifHIdtimp5Ud-8" value="" style="rounded=1;whiteSpace=wrap;html=1;" vertex="1" parent="1">
          <mxGeometry x="290" y="560" width="120" height="60" as="geometry" />
        </mxCell>
        <mxCell id="cfq1ZJJZifHIdtimp5Ud-9" value="" style="endArrow=classic;html=1;rounded=0;" edge="1" parent="1">
          <mxGeometry width="50" height="50" relative="1" as="geometry">
            <mxPoint x="190" y="540" as="sourcePoint" />
            <mxPoint x="250" y="560" as="targetPoint" />
          </mxGeometry>
        </mxCell>
        <mxCell id="cfq1ZJJZifHIdtimp5Ud-10" value="회원가입" style="text;html=1;strokeColor=none;fillColor=none;align=center;verticalAlign=middle;whiteSpace=wrap;rounded=0;" vertex="1" parent="1">
          <mxGeometry x="320" y="575" width="60" height="30" as="geometry" />
        </mxCell>
        <mxCell id="cfq1ZJJZifHIdtimp5Ud-12" value="" style="endArrow=classic;html=1;rounded=0;" edge="1" parent="1">
          <mxGeometry width="50" height="50" relative="1" as="geometry">
            <mxPoint x="450" y="429.5" as="sourcePoint" />
            <mxPoint x="520" y="429.5" as="targetPoint" />
          </mxGeometry>
        </mxCell>
        <mxCell id="cfq1ZJJZifHIdtimp5Ud-13" value="" style="rounded=1;whiteSpace=wrap;html=1;" vertex="1" parent="1">
          <mxGeometry x="560" y="400" width="120" height="60" as="geometry" />
        </mxCell>
        <mxCell id="cfq1ZJJZifHIdtimp5Ud-14" value="" style="rounded=1;whiteSpace=wrap;html=1;" vertex="1" parent="1">
          <mxGeometry x="500" y="560" width="120" height="60" as="geometry" />
        </mxCell>
        <mxCell id="cfq1ZJJZifHIdtimp5Ud-15" value="" style="endArrow=classic;html=1;rounded=0;" edge="1" parent="1">
          <mxGeometry width="50" height="50" relative="1" as="geometry">
            <mxPoint x="430" y="589.5" as="sourcePoint" />
            <mxPoint x="490" y="589.5" as="targetPoint" />
          </mxGeometry>
        </mxCell>
        <mxCell id="cfq1ZJJZifHIdtimp5Ud-16" value="입력폼" style="text;html=1;strokeColor=none;fillColor=none;align=center;verticalAlign=middle;whiteSpace=wrap;rounded=0;" vertex="1" parent="1">
          <mxGeometry x="590" y="415" width="60" height="30" as="geometry" />
        </mxCell>
        <mxCell id="cfq1ZJJZifHIdtimp5Ud-17" value="" style="rounded=1;whiteSpace=wrap;html=1;" vertex="1" parent="1">
          <mxGeometry x="500" y="700" width="120" height="60" as="geometry" />
        </mxCell>
        <mxCell id="cfq1ZJJZifHIdtimp5Ud-18" value="" style="endArrow=classic;html=1;rounded=0;" edge="1" parent="1">
          <mxGeometry width="50" height="50" relative="1" as="geometry">
            <mxPoint x="560.5" y="630" as="sourcePoint" />
            <mxPoint x="560" y="690" as="targetPoint" />
          </mxGeometry>
        </mxCell>
        <mxCell id="cfq1ZJJZifHIdtimp5Ud-19" value="운영정책" style="text;html=1;strokeColor=none;fillColor=none;align=center;verticalAlign=middle;whiteSpace=wrap;rounded=0;" vertex="1" parent="1">
          <mxGeometry x="530" y="575" width="60" height="30" as="geometry" />
        </mxCell>
        <mxCell id="cfq1ZJJZifHIdtimp5Ud-20" value="가입양식" style="text;html=1;strokeColor=none;fillColor=none;align=center;verticalAlign=middle;whiteSpace=wrap;rounded=0;" vertex="1" parent="1">
          <mxGeometry x="530" y="715" width="60" height="30" as="geometry" />
        </mxCell>
        <mxCell id="cfq1ZJJZifHIdtimp5Ud-21" value="" style="endArrow=classic;html=1;rounded=0;" edge="1" parent="1">
          <mxGeometry width="50" height="50" relative="1" as="geometry">
            <mxPoint x="560" y="770" as="sourcePoint" />
            <mxPoint x="560" y="830" as="targetPoint" />
          </mxGeometry>
        </mxCell>
        <mxCell id="cfq1ZJJZifHIdtimp5Ud-22" value="" style="rounded=1;whiteSpace=wrap;html=1;" vertex="1" parent="1">
          <mxGeometry x="500" y="870" width="120" height="60" as="geometry" />
        </mxCell>
        <mxCell id="cfq1ZJJZifHIdtimp5Ud-23" value="회원 정보 생성" style="text;html=1;strokeColor=none;fillColor=none;align=center;verticalAlign=middle;whiteSpace=wrap;rounded=0;" vertex="1" parent="1">
          <mxGeometry x="530" y="885" width="60" height="30" as="geometry" />
        </mxCell>
        <mxCell id="cfq1ZJJZifHIdtimp5Ud-24" value="" style="endArrow=classic;html=1;rounded=0;" edge="1" parent="1">
          <mxGeometry width="50" height="50" relative="1" as="geometry">
            <mxPoint x="559.5" y="940" as="sourcePoint" />
            <mxPoint x="559.5" y="1000" as="targetPoint" />
          </mxGeometry>
        </mxCell>
        <mxCell id="cfq1ZJJZifHIdtimp5Ud-25" value="" style="rounded=1;whiteSpace=wrap;html=1;" vertex="1" parent="1">
          <mxGeometry x="500" y="1030" width="120" height="60" as="geometry" />
        </mxCell>
        <mxCell id="cfq1ZJJZifHIdtimp5Ud-26" value="가입 성공" style="text;html=1;strokeColor=none;fillColor=none;align=center;verticalAlign=middle;whiteSpace=wrap;rounded=0;" vertex="1" parent="1">
          <mxGeometry x="530" y="1045" width="60" height="30" as="geometry" />
        </mxCell>
        <mxCell id="cfq1ZJJZifHIdtimp5Ud-27" value="" style="endArrow=classic;html=1;rounded=0;" edge="1" parent="1">
          <mxGeometry width="50" height="50" relative="1" as="geometry">
            <mxPoint x="610" y="390" as="sourcePoint" />
            <mxPoint x="610" y="330" as="targetPoint" />
          </mxGeometry>
        </mxCell>
        <mxCell id="cfq1ZJJZifHIdtimp5Ud-28" value="" style="rounded=1;whiteSpace=wrap;html=1;" vertex="1" parent="1">
          <mxGeometry x="560" y="240" width="120" height="60" as="geometry" />
        </mxCell>
        <mxCell id="cfq1ZJJZifHIdtimp5Ud-29" value="로그인&lt;br&gt;성공" style="text;html=1;strokeColor=none;fillColor=none;align=center;verticalAlign=middle;whiteSpace=wrap;rounded=0;" vertex="1" parent="1">
          <mxGeometry x="590" y="255" width="60" height="30" as="geometry" />
        </mxCell>
      </root>
    </mxGraphModel>
  </diagram>
</mxfile>
